<svg xmlns="http://www.w3.org/2000/svg" version="1.1" xmlns:xlink="http://www.w3.org/1999/xlink" xmlns:svgjs="http://svgjs.com/svgjs" width="512" height="512" x="0" y="0" viewBox="0 0 60 60" style="enable-background:new 0 0 512 512" xml:space="preserve" class=""><g><g xmlns="http://www.w3.org/2000/svg" id="Page-1" fill="none" fill-rule="evenodd"><g id="026---100-Sit-Ups" fill="rgb(0,0,0)" fill-rule="nonzero"><path id="Shape" d="m49.715 39.991c-.3572656.0055376-.6844383.2012535-.8582754.5134234s-.1679285.6933677.0155 1 .5165098.4921142.8737754.4865766h.033c3.5395132-.1120184 6.6387242-2.4067563 7.7786855-5.7595448 1.1399613-3.3527884.0817942-7.0610512-2.6558853-9.3073399-2.7376796-2.2462887-6.5811913-2.5598939-9.6468002-.7871153-.4635985.2838909-.6154926.8861308-.3419864 1.3559307s.8722177.6350554 1.3479864.3720693c.9843669-.5692298 2.1019013-.867676 3.239-.865 3.5053474.0576233 6.3334256 2.8847343 6.392248 6.3900618.0588223 3.5053275-2.6728076 6.425735-6.174248 6.6009382z" fill="#d45555" data-original="#000000" class=""></path><path id="Shape" d="m57 54h-20.349l9.192-9.191c1.3385049-1.2938473 1.3971546-3.4203426.132-4.786l-3.024-3.023h6.4c1.8178949.0199227 3.3684178-1.3119093 3.623-3.112.1774983-1.6659223-.8427575-3.226412-2.44-3.732-.0279174-.0088553-.0562919-.0161993-.085-.022-.3085637-.0885764-.6279748-.1336777-.949-.134h-14.9c-1.1386365-.018747-2.2185642.5041458-2.91 1.409-1.0314565 1.3965398-.8891593 3.3368786.335 4.568l5.672 5.673-4.7 4.7-10.173-10.177c-1.581325-1.5112494-4.071675-1.5112494-5.653 0l-13 13c-1.28354166 1.2784586-1.54205417 3.2623059-.629 4.827h-.542c-1.65685425 0-3 1.3431458-3 3s1.34314575 3 3 3h54c1.6568542 0 3-1.3431458 3-3s-1.3431458-3-3-3zm-51.415-3.413 13-13c.780655-.7787666 2.044345-.7787666 2.825 0l10.88 10.88c.3904999.3903819 1.0235001.3903819 1.414 0l6.11-6.11c.3903819-.3904999.3903819-1.0235001 0-1.414l-6.375-6.375c-.5348244-.5311127-.5946417-1.3758189-.14-1.977.3157309-.3917497.7982514-.6109423 1.301-.591h14.9c.1495453-.0001362.298243.022455.441.067l.048.013c.6614629.2348754 1.0751886.893113 1 1.591-.135222.7899721-.8340639 1.3580216-1.635 1.329h-8.817c-.4043959.0000863-.7689341.2437275-.923678.6173454-.1547439.373618-.0692299.8036603.216678 1.0896546l4.738 4.739c.4764859.5841629.415565 1.4383702-.139 1.949l-10.029 10.024c-.7893337.7540332-2.0328833.7513864-2.819-.006l-10.881-10.88c-.3904999-.3903819-1.0235001-.3903819-1.414 0l-10.8 10.8c-.6772092.7074503-1.75524403.8488592-2.592.34-.50219775-.3306604-.82898147-.8697163-.88986698-1.4679067-.06088551-.5981905.15058874-1.1920318.57586698-1.6170933zm14.415-5.933 9.343 9.346h-18.692zm37 13.346h-54c-.55228475 0-1-.4477153-1-1s.44771525-1 1-1h54c.5522847 0 1 .4477153 1 1s-.4477153 1-1 1z" fill="#d45555" data-original="#000000" class=""></path></g></g></g></svg>