<svg xmlns="http://www.w3.org/2000/svg" version="1.1" xmlns:xlink="http://www.w3.org/1999/xlink" xmlns:svgjs="http://svgjs.com/svgjs" width="512" height="512" x="0" y="0" viewBox="0 0 512 512" style="enable-background:new 0 0 512 512" xml:space="preserve" class=""><g><g xmlns="http://www.w3.org/2000/svg"><g id="Page-1_19_"><g id="_x30_20---Shopping-Bag"><path id="Shape_125_" d="m256 0c-51.816.061-93.806 42.051-93.867 93.867v8.533h-52.617c-13.306-.071-24.422 10.119-25.506 23.381l-29.55 339.857c-1.036 11.913 2.976 23.714 11.057 32.528 8.08 8.815 19.489 13.834 31.447 13.834h318.072c11.958 0 23.367-5.019 31.448-13.833s12.092-20.615 11.057-32.528l-29.551-339.857c-1.084-13.262-12.2-23.452-25.506-23.381h-52.617v-8.533c-.061-51.817-42.051-93.807-93.867-93.868zm-76.8 93.867c0-42.415 34.385-76.8 76.8-76.8s76.8 34.385 76.8 76.8v8.533h-153.6zm223.283 25.6c4.438-.017 8.147 3.37 8.533 7.791l29.525 339.857c.622 7.149-1.785 14.23-6.634 19.519s-11.696 8.3-18.872 8.299h-318.071c-7.176.001-14.022-3.01-18.872-8.299s-7.256-12.371-6.634-19.519l29.551-339.857c.386-4.421 4.096-7.808 8.533-7.791h52.591v10.103c-11.755 4.156-18.806 16.176-16.698 28.465s12.763 21.271 25.231 21.271 23.123-8.982 25.231-21.271-4.943-24.309-16.698-28.465v-10.103h153.6v10.103c-11.755 4.156-18.806 16.176-16.698 28.465s12.763 21.271 25.231 21.271 23.123-8.982 25.231-21.271-4.943-24.309-16.698-28.465v-10.103zm-223.283 34.133c0 4.713-3.821 8.533-8.533 8.533-4.713 0-8.533-3.821-8.533-8.533s3.821-8.533 8.533-8.533c4.713 0 8.533 3.82 8.533 8.533zm170.667 0c0 4.713-3.821 8.533-8.533 8.533s-8.533-3.821-8.533-8.533 3.82-8.533 8.533-8.533 8.533 3.82 8.533 8.533z" fill="#000000" data-original="#000000" class=""></path><path id="Shape_124_" d="m110.933 469.333c0 4.713 3.821 8.533 8.533 8.533h273.067c4.713 0 8.533-3.821 8.533-8.533 0-4.713-3.82-8.533-8.533-8.533h-273.066c-4.713 0-8.534 3.821-8.534 8.533z" fill="#000000" data-original="#000000" class=""></path></g></g></g></g></svg>