<svg xmlns="http://www.w3.org/2000/svg" version="1.1" xmlns:xlink="http://www.w3.org/1999/xlink" xmlns:svgjs="http://svgjs.com/svgjs" width="512" height="512" x="0" y="0" viewBox="0 0 512 512" style="enable-background:new 0 0 512 512" xml:space="preserve" class=""><g><g xmlns="http://www.w3.org/2000/svg"><g id="Page-1_36_"><g id="_x30_37---Gym-Routine"><path id="Shape_265_" d="m409.6 228.479v-32.026h17.067c14.138 0 25.6-11.462 25.6-25.6v-17.067c0-14.138-11.462-25.6-25.6-25.6h-17.067v-51.2c0-18.851-15.282-34.133-34.133-34.133-6.01.035-11.901 1.673-17.067 4.745v-13.278c0-18.851-15.282-34.133-34.133-34.133s-34.133 15.282-34.133 34.133v93.867h-128v-93.867c0-18.851-15.282-34.133-34.133-34.133s-34.133 15.282-34.133 34.133v13.278c-5.166-3.071-11.057-4.709-17.067-4.745-18.851 0-34.133 15.282-34.133 34.133v51.2h-17.068c-14.138 0-25.6 11.462-25.6 25.6v17.067c0 14.138 11.462 25.6 25.6 25.6h17.067v51.2c0 18.851 15.282 34.133 34.133 34.133 6.01-.035 11.901-1.673 17.067-4.745v13.278c0 18.851 15.282 34.133 34.133 34.133s34.133-15.282 34.133-34.133v-93.867h128v47.787c-57.703 36.211-82.379 107.734-59.279 171.822s87.732 103.422 155.268 94.493 119.725-63.709 125.375-131.598-36.766-130.542-101.897-150.512zm17.067-83.225c4.713 0 8.533 3.821 8.533 8.533v17.067c0 4.713-3.82 8.533-8.533 8.533h-17.067v-34.133zm-51.2-85.334c9.426 0 17.067 7.641 17.067 17.067v147.465c-8.446-1.553-17.013-2.356-25.6-2.398-2.884 0-5.692.265-8.533.435v-145.502c-.001-9.426 7.64-17.067 17.066-17.067zm-349.867 119.467c-4.713 0-8.533-3.821-8.533-8.533v-17.067c0-4.713 3.821-8.533 8.533-8.533h17.067v34.133zm51.2 85.333c-9.426 0-17.067-7.641-17.067-17.067v-170.666c0-9.426 7.641-17.067 17.067-17.067s17.067 7.641 17.067 17.067v170.667c0 9.425-7.641 17.066-17.067 17.066zm68.267 25.6c0 9.426-7.641 17.067-17.067 17.067s-17.067-7.641-17.067-17.067v-256c0-9.426 7.641-17.067 17.067-17.067s17.067 7.641 17.067 17.067zm17.066-110.933v-34.133h128v34.133zm145.067 8.533v-153.6c0-9.426 7.641-17.067 17.067-17.067s17.067 7.641 17.067 17.067v190.131c-11.776 2.104-23.243 5.673-34.133 10.624v-47.155zm59.733 307.2c-70.692 0-128-57.308-128-128s57.308-128 128-128 128 57.308 128 128c-.08 70.66-57.34 127.92-128 128z" fill="#ffffff" data-original="#000000" class=""></path><path id="Shape_264_" d="m366.933 256.187c-61.266 0-110.933 49.666-110.933 110.933s49.667 110.933 110.933 110.933 110.933-49.667 110.933-110.933c-.07-61.237-49.695-110.862-110.933-110.933zm-60.023 183.023 5.717-5.717c3.234-3.348 3.188-8.671-.104-11.962-3.292-3.292-8.614-3.338-11.962-.104l-5.717 5.717c-12.188-14.591-19.634-32.555-21.342-51.49h8.098c4.713 0 8.533-3.82 8.533-8.533s-3.821-8.533-8.533-8.533h-8.098c1.705-18.934 9.148-36.898 21.333-51.49l5.717 5.717c3.348 3.234 8.671 3.188 11.962-.104 3.292-3.292 3.338-8.614.104-11.962l-5.717-5.717c14.594-12.19 32.56-19.636 51.499-21.342v8.098c0 4.713 3.82 8.533 8.533 8.533s8.533-3.82 8.533-8.533v-8.098c18.934 1.705 36.898 9.148 51.49 21.333l-5.717 5.717c-2.218 2.142-3.108 5.315-2.327 8.299.781 2.983 3.111 5.313 6.094 6.094s6.156-.109 8.299-2.327l5.717-5.717c12.19 14.594 19.636 32.56 21.342 51.499h-8.098c-4.713 0-8.533 3.82-8.533 8.533s3.82 8.533 8.533 8.533h8.098c-1.705 18.934-9.148 36.898-21.333 51.49l-5.717-5.717c-3.348-3.234-8.671-3.188-11.962.104-3.292 3.292-3.338 8.614-.104 11.962l5.717 5.717c-34.749 29.035-85.298 29.035-120.047 0z" fill="#ffffff" data-original="#000000" class=""></path><path id="Shape_263_" d="m401.067 358.587h-10.103c-3.603-10.192-13.22-17.022-24.03-17.067-.555 0-1.084.128-1.63.162l-12.467-29.124c-1.899-4.261-6.869-6.207-11.157-4.369s-6.305 6.78-4.528 11.093l12.459 29.107c-7.835 7.188-10.396 18.478-6.428 28.342s13.634 16.237 24.263 15.997c10.63-.24 19.998-7.042 23.517-17.076h10.103c4.713 0 8.533-3.82 8.533-8.533s-3.819-8.532-8.532-8.532zm-34.134 17.067c-4.713 0-8.533-3.82-8.533-8.533s3.82-8.533 8.533-8.533 8.533 3.82 8.533 8.533-3.82 8.533-8.533 8.533z" fill="#ffffff" data-original="#000000" class=""></path></g></g></g></g></svg>