<svg xmlns="http://www.w3.org/2000/svg" version="1.1" xmlns:xlink="http://www.w3.org/1999/xlink" xmlns:svgjs="http://svgjs.com/svgjs" width="512" height="512" x="0" y="0" viewBox="0 0 60 60" style="enable-background:new 0 0 512 512" xml:space="preserve" class=""><g><g xmlns="http://www.w3.org/2000/svg" id="Icons"><path d="M57.37,15.365A9.005,9.005,0,0,0,51,0H41a8.988,8.988,0,0,0-6.371,2.636A9.147,9.147,0,0,0,32.532,6H27.489A9,9,0,0,0,19,0H9A9,9,0,0,0,9,18H19a8.988,8.988,0,0,0,6.371-2.636A9.147,9.147,0,0,0,27.468,12h5.043A9,9,0,0,0,41,18h7v3H41a8.988,8.988,0,0,0-6.371,2.636A9.147,9.147,0,0,0,32.532,27H27.489A9,9,0,0,0,19,21H9A9,9,0,0,0,6,38.489v4.022A9,9,0,0,0,9,60H19a9,9,0,0,0,8.489-6h5.022A9,9,0,0,0,41,60h3a2,2,0,0,0,2-2V56a2,2,0,0,0-2-2H41a2.978,2.978,0,0,1-1.994-.785,2.965,2.965,0,0,0,0-4.43A2.978,2.978,0,0,1,41,48h3a2,2,0,0,0,2-2V44a2,2,0,0,0-2-2H41a8.988,8.988,0,0,0-6.371,2.636A9.147,9.147,0,0,0,32.532,48H27.467a9.145,9.145,0,0,0-2.1-3.37A8.983,8.983,0,0,0,19,42H12V39h7a8.988,8.988,0,0,0,6.371-2.636A9.147,9.147,0,0,0,27.468,33h5.043A9,9,0,0,0,41,39H51a9,9,0,0,0,3-17.489V17.468A9.169,9.169,0,0,0,57.37,15.365ZM36.045,4.049A6.993,6.993,0,0,1,41,2H51a7,7,0,0,1,4.957,11.949A7.14,7.14,0,0,1,54,15.307V12.992A4.995,4.995,0,0,0,51,4H41a4.99,4.99,0,0,0-4,2H34.693A7.132,7.132,0,0,1,36.045,4.049ZM54,30a3,3,0,0,1-3,3H41a2.978,2.978,0,0,1-1.994-.785,2.965,2.965,0,0,0,0-4.43A2.978,2.978,0,0,1,41,27h7a2.99,2.99,0,0,0,5.588,1.49A2.991,2.991,0,0,1,54,30ZM9,30a2.99,2.99,0,0,0-2.588,1.51A2.994,2.994,0,0,1,9,27H19a2.994,2.994,0,0,1,1.51.412,2.973,2.973,0,0,0,0,5.176A2.994,2.994,0,0,1,19,33H12A3,3,0,0,0,9,30ZM37,50a1,1,0,0,1,0,2H22a1,1,0,0,1,0-2ZM20.512,53.589A2.989,2.989,0,0,1,19,54H9a2.994,2.994,0,0,1-2.588-4.51A2.99,2.99,0,0,0,12,48h7a3,3,0,0,1,1.512.411,2.973,2.973,0,0,0,0,5.178ZM8,48V33a1,1,0,0,1,2,0V48a1,1,0,0,1-2,0ZM22,31a1,1,0,0,1,0-2H37a1,1,0,0,1,0,2ZM20.51,11.588A2.994,2.994,0,0,1,19,12H9A3,3,0,0,1,9,6H19a2.994,2.994,0,0,1,1.51.412,2.973,2.973,0,0,0,0,5.176ZM22,10a1,1,0,0,1,0-2H37a1,1,0,0,1,0,2ZM39.006,6.785A2.978,2.978,0,0,1,41,6H51a2.994,2.994,0,0,1,2.588,4.51A2.99,2.99,0,0,0,48,12H41a2.978,2.978,0,0,1-1.994-.785,2.965,2.965,0,0,0,0-4.43ZM52,12V27a1,1,0,0,1-2,0V12a1,1,0,0,1,2,0ZM23.955,13.951A6.993,6.993,0,0,1,19,16H9A7,7,0,1,1,9,2H19a6.994,6.994,0,0,1,6.317,4H22.992A5.006,5.006,0,0,0,19,4H9A5,5,0,0,0,9,14H19a5.006,5.006,0,0,0,3.992-2h2.315A7.132,7.132,0,0,1,23.955,13.951ZM41,16a6.994,6.994,0,0,1-6.317-4H37a4.99,4.99,0,0,0,4,2h7v2Zm-4.955,9.049A6.993,6.993,0,0,1,41,23h7v2H41a4.99,4.99,0,0,0-4,2H34.693A7.132,7.132,0,0,1,36.045,25.049ZM2,30a6.989,6.989,0,0,1,7-7H19a6.994,6.994,0,0,1,6.317,4H22.992A5.006,5.006,0,0,0,19,25H9a4.995,4.995,0,0,0-3,8.992v2.325A7,7,0,0,1,2,30ZM19,58H9A7,7,0,0,1,6,44.683v2.325A4.995,4.995,0,0,0,9,56H19a4.992,4.992,0,0,0,4-2h2.321A6.994,6.994,0,0,1,19,58Zm22-2h3v2H41a6.994,6.994,0,0,1-6.317-4H37A4.99,4.99,0,0,0,41,56Zm-4.955-9.951A6.993,6.993,0,0,1,41,44h3v2H41a4.99,4.99,0,0,0-4,2H34.693A7.132,7.132,0,0,1,36.045,46.049ZM19,44a6.988,6.988,0,0,1,4.949,2.043A7.14,7.14,0,0,1,25.307,48H23a4.992,4.992,0,0,0-4-2H12V44Zm4.955-9.049A6.993,6.993,0,0,1,19,37H12V35h7a5.006,5.006,0,0,0,3.992-2h2.315A7.132,7.132,0,0,1,23.955,34.951ZM58,30a6.989,6.989,0,0,1-7,7H41a6.994,6.994,0,0,1-6.317-4H37a4.99,4.99,0,0,0,4,2H51a4.995,4.995,0,0,0,3-8.992V23.683A7,7,0,0,1,58,30Z" fill="#d93a31" data-original="#000000" class=""></path><path d="M53.485,43.143l-5,3a1,1,0,1,0,1.03,1.714l5-3a1,1,0,1,0-1.03-1.714Z" fill="#d93a31" data-original="#000000" class=""></path><path d="M48.485,55.857l5,3a1,1,0,0,0,1.03-1.714l-5-3a1,1,0,1,0-1.03,1.714Z" fill="#d93a31" data-original="#000000" class=""></path><path d="M50,51a1,1,0,0,0,1,1h6a1,1,0,0,0,0-2H51A1,1,0,0,0,50,51Z" fill="#d93a31" data-original="#000000" class=""></path></g></g></svg>