<svg xmlns="http://www.w3.org/2000/svg" version="1.1" xmlns:xlink="http://www.w3.org/1999/xlink" xmlns:svgjs="http://svgjs.com/svgjs" width="512" height="512" x="0" y="0" viewBox="0 0 60 60" style="enable-background:new 0 0 512 512" xml:space="preserve" class=""><g><g xmlns="http://www.w3.org/2000/svg" id="031---Girl-Power"><path id="Shape" d="m30.546 20.939c.2365523.1202624.5112058.1415701.763476.0592306s.4614681-.2615734.581524-.4982306c.5449781-1.1226998 1.4427644-2.035941 2.556-2.6.3197527-.1596977.5300187-.4778505.5515927-.8346134.0215741-.3567628-.1488213-.6979349-.447-.895-.2981786-.1970651-.67884-.2200843-.9985927-.0603866-1.4989727.7549829-2.7091007 1.9805669-3.445 3.489-.2472171.491123-.0515613 1.0897045.438 1.34z" fill="#d93a31" data-original="#000000" class=""></path><path id="Shape" d="m10.447 44.105c-.49429485-.2468713-1.09512872-.0462949-1.342.448s-.04629485 1.0951287.448 1.342c3.367 1.682 3.447 6.022 3.447 6.105 0 .5522847.4477153 1 1 1s1-.4477153 1-1c0-.229-.052-5.645-4.553-7.895z" fill="#d93a31" data-original="#000000" class=""></path><path id="Shape" d="m56 34v-2c0-1.6568542-1.3431458-3-3-3-.8451664-.1197705-1.7067829.019706-2.471.4-.5469667-.8696613-1.5016345-1.3981449-2.529-1.4h-1c-1.0275506.0001101-1.9827058.5290726-2.528 1.4-.7642952-.3811643-1.6265002-.5206797-2.472-.4-1.3516837.0057822-2.5325714.9147873-2.884 2.22-.6811129-.225545-1.4030568-.3006053-2.116-.22v-2.184c1.1898521-.4187111 1.9882579-1.5399287 1.9947632-2.801287s-.7802932-2.3907515-1.9657632-2.821713c.0489575-.3012499.2462988-.5576057.525-.682 2.689117-1.0379686 4.4580733-3.6285386 4.446-6.511v-7c-.0052514-1.26678543-.8056491-2.39374545-2-2.816v-2.184c0-1.65685425-1.3431458-3-3-3-.8451664-.11977053-1.7067829.01970605-2.471.4-.5469667-.8696613-1.5016345-1.39814485-2.529-1.4h-1c-1.0273655.00185515-1.9820333.5303387-2.529 1.4-.7640805-.38071854-1.6258293-.52021652-2.471-.4-1.3516837.00578221-2.5325714.91478732-2.884 2.22-.6811129-.22554495-1.4030568-.30060529-2.116-.22-1.6568542 0-3 1.34314575-3 3v4.5c.0003562.9136099.3594615 1.790545 1 2.442v3.058c-.0018026 2.4741461 1.3046254 4.7648639 3.435 6.023.3361136.1769595.5517062.5203814.565.9v.264c-1.1951589.4202307-1.9948642 1.5491146-1.9948642 2.816s.7997053 2.3957693 1.9948642 2.816v2.181c-.7129425-.0807653-1.4349208-.0057014-2.116.22-.3514286-1.3052127-1.5323163-2.2142178-2.884-2.22-.8458135-.1195492-1.708002.0199071-2.473.4-.96-1.5-2.3-1.4-3.527-1.4-1.0273655.0018551-1.9820333.5303387-2.529 1.4-.76408047-.3807185-1.62582928-.5202165-2.471-.4-1.65685425 0-3 1.3431458-3 3v2c-2.209139 0-4 1.790861-4 4v6c-.01261673 2.8831651 1.75696073 5.47446 4.447 6.512.35044735.159353.56919671.5153646.553.9v6.588c0 1.1045695.8954305 2 2 2h12c1.1045695 0 2-.8954305 2-2v-7.08c.0132938-.3796186.2288864-.7230405.565-.9.5261641-.3076326 1.0087827-.6843106 1.435-1.12v9.1c0 1.1045695.8954305 2 2 2h10c1.1045695 0 2-.8954305 2-2v-9.1c.4262173.4356894.9088359.8123674 1.435 1.12.3361136.1769595.5517062.5203814.565.9v7.08c0 1.1045695.8954305 2 2 2h12c1.1045695 0 2-.8954305 2-2v-6.59c-.0161967-.3846354.2025526-.740647.553-.9 2.6893537-1.0372796 4.458785-3.6275647 4.447-6.51v-6c0-2.209139-1.790861-4-4-4zm-4-3h1c.5522847 0 1 .4477153 1 1v2h-3v-2c0-.5522847.4477153-1 1-1zm-6 0c.0070059-.5493566.4506434-.9929941 1-1h1c.5522847 0 1 .4477153 1 1v3.786c-1.3238568 1.325137-1.333226 3.4693446-.021 4.806-.0704979.7136878-.6114276 1.291117-1.319 1.408-.424733.0455718-.8487486-.0921063-1.165692-.3785009-.3169434-.2863945-.4967458-.6943352-.494308-1.1214991zm-5 1c0-.5522847.4477153-1 1-1h1c.5522847 0 1 .4477153 1 1v6.5c0 .8284271-.6715729 1.5-1.5 1.5s-1.5-.6715729-1.5-1.5zm-3 1c.5522847 0 1 .4477153 1 1v4.5c-.0013651.4862079-.2383085.9415948-.6356914 1.2217497-.397383.280155-.9059062.3503222-1.3643086.1882503v-6.91zm-2-6c-.5522847 0-1-.4477153-1-1s.4477153-1 1-1 1 .4477153 1 1-.4477153 1-1 1zm0-24h1c.5522847 0 1 .44771525 1 1v2h-3v-2c0-.55228475.4477153-1 1-1zm-6 0c0-.55228475.4477153-1 1-1h1c.5522847 0 1 .44771525 1 1 0 4.292.054 3.712-.118 3.883-1.2070413 1.35289153-1.163387 3.4085703.1 4.709-.0339387.5708877-.3916372 1.071976-.9205315 1.2895429s-1.135647.113217-1.5614685-.2685429c-.581-.525-.5-1.062-.5-2.113zm-5 1c0-.55228475.4477153-1 1-1h1c.5522847 0 1 .44771525 1 1v6.5c0 .8284271-.6715729 1.5-1.5 1.5s-1.5-.6715729-1.5-1.5zm-5 2c0-.55228475.4477153-1 1-1h1c.5522847 0 1 .44771525 1 1v4.5c0 .8284271-.6715729 1.5-1.5 1.5s-1.5-.6715729-1.5-1.5zm1 10v-2.051c1.1045234.1753403 2.2249624-.2007538 3-1.007 1.2032849 1.2453124 3.1409205 1.411798 4.539.39.6810554 1.1306179 1.948229 1.7727187 3.2627126 1.6532783s2.4451706-.9794227 2.9112874-2.2142783c.4134182.1468517.8483004.2242317 1.287.229v2c0 .5522847.4477153 1 1 1s1-.4477153 1-1v-2c-.0038593-1.1068726-.9031219-2.0016613-2.01-2-1.61 0-2.49-1.9-1.69-2.7.1841886-.18905881.4360687-.29700743.7-.3h4c.5522847 0 1 .44771525 1 1v7c.0081429 2.0578326-1.2544905 3.9072286-3.174 4.649-1.0360777.4294184-1.7377309 1.4107244-1.809 2.53-.3755026.1304321-.7212388.3344063-1.017.6-1.1305142-1.0400491-2.8694858-1.0400491-4 0-1.1305142-1.0400491-2.8694858-1.0400491-4 0-.2907056-.2637176-.6305053-.4675974-1-.6.0786462-1.1788937-.5260008-2.2983656-1.555-2.879-1.518809-.8993766-2.4487645-2.5348811-2.445-4.3zm12 10c0 .5522847-.4477153 1-1 1s-1-.4477153-1-1 .4477153-1 1-1 1 .4477153 1 1zm-4 0c0 .5522847-.4477153 1-1 1s-1-.4477153-1-1 .4477153-1 1-1 1 .4477153 1 1zm-5-1c.5522847 0 1 .4477153 1 1s-.4477153 1-1 1-1-.4477153-1-1 .4477153-1 1-1zm-2 8h1v6.91c-.4584024.1620719-.9669256.0919047-1.3643086-.1882503-.3973829-.2801549-.6343263-.7355418-.6356914-1.2217497v-4.5c0-.5522847.4477153-1 1-1zm-5-2h1c.5522847 0 1 .4477153 1 1v6.5c0 .8284271-.6715729 1.5-1.5 1.5s-1.5-.6715729-1.5-1.5v-6.5c0-.5522847.4477153-1 1-1zm-6 0c0-.5522847.4477153-1 1-1h1c.5493566.0070059.9929941.4506434 1 1v8.5c-.0013505.8045649-.6407909 1.4629514-1.4449735 1.4877868-.8041826.0248355-1.4830315-.5928385-1.5340265-1.3957868 1.2640047-1.3005628 1.307665-3.3569602.1-4.71-.175-.17-.121.398-.121-3.882zm-5 1c0-.5522847.44771525-1 1-1h1c.55228475 0 1 .4477153 1 1v2h-3zm14.555 16.3c-.9504397.5315209-1.5436961 1.5310913-1.555 2.62v7.08h-12v-6.59c.01188048-1.2069944-.71080809-2.3001302-1.826-2.762-1.9202824-.740233-3.18344482-2.5900058-3.174-4.648v-6c0-1.1045695.8954305-2 2-2h5c1.017 0 1.436 1.39.413 2.413-.68072307.53721-1.56157707.7514915-2.413.587-1.10681507-.001113-2.0060422.8931955-2.011 2v2c0 .5522847.44771525 1 1 1s1-.4477153 1-1l.011-2c.76944666.0743106 1.5459995-.0024615 2.286-.226.46621376 1.2357139 1.5976876 2.0962558 2.9130294 2.2155032 1.3153418.1192475 2.5831276-.5237802 3.2639706-1.6555032 1.3983036 1.0196584 3.3343114.8523859 4.537-.392.776989.8037327 1.8944262 1.1825439 3 1.017v2.041c.0037645 1.7651189-.926191 3.4006234-2.445 4.3zm14.445 9.7h-10v-29.184c.3694947-.1324026.7092944-.3362824 1-.6 1.1305142 1.0400491 2.8694858 1.0400491 4 0 1.1305142 1.0400491 2.8694858 1.0400491 4 0 .2909545.2633822.6306842.46722 1 .6zm23-14c.0094448 2.0579942-1.2537176 3.907767-3.174 4.648-1.1151919.4618698-1.8378805 1.5550056-1.826 2.762v6.59h-12v-7.08c-.0113039-1.0889087-.6045603-2.0884791-1.555-2.62-1.518809-.8993766-2.4487645-2.5348811-2.445-4.3v-2.041c1.1055738.1655439 2.223011-.2132673 3-1.017 1.2028878 1.2439674 3.1385719 1.4112118 4.537.392.6813337 1.1310061 1.9488717 1.7734313 3.2638539 1.6542165s2.4463206-.9791196 2.9131461-2.2142165c.7441989.2265839 1.5259316.3033976 2.3.226v2c0 .5522847.4477153 1 1 1s1-.4477153 1-1v-2c-.0049602-1.1079775-.9060149-2.0027687-2.014-2h-1c-1.1034291-.0027483-1.9972517-.8965709-2-2 .0070059-.5493566.4506434-.9929941 1-1h5c1.1045695 0 2 .8954305 2 2z" fill="#d93a31" data-original="#000000" class=""></path><path id="Shape" d="m49.553 44.105c-4.501 2.25-4.553 7.666-4.553 7.895 0 .5522847.4477153 1 1 1s1-.4477153 1-1c0-.044.04-4.4 3.447-6.1.3197527-.1596977.5300187-.4778505.5515928-.8346134.0215741-.3567628-.1488214-.6979349-.447-.895-.2981787-.1970651-.6788401-.2200843-.9985928-.0603866z" fill="#d93a31" data-original="#000000" class=""></path></g></g></svg>