<svg xmlns="http://www.w3.org/2000/svg" version="1.1" xmlns:xlink="http://www.w3.org/1999/xlink" xmlns:svgjs="http://svgjs.com/svgjs" width="512" height="512" x="0" y="0" viewBox="0 0 54 60" style="enable-background:new 0 0 512 512" xml:space="preserve" class=""><g><g xmlns="http://www.w3.org/2000/svg" id="Page-1" fill="none" fill-rule="evenodd"><g id="022---Ideas" fill="rgb(0,0,0)" fill-rule="nonzero"><path id="Shape" d="m31 46h-.11c2.0368069-1.9885044 2.6666341-5.0123796 1.5931118-7.6487183-1.0735224-2.6363387-3.636582-4.360064-6.4831118-4.360064s-5.4095894 1.7237253-6.4831118 4.360064c-1.0735223 2.6363387-.4436951 5.6602139 1.5931118 7.6487183h-.11c-3.3123376.0033074-5.9966926 2.6876624-6 6v6c0 1.1045695.8954305 2 2 2h18c1.1045695 0 2-.8954305 2-2v-6c-.0033074-3.3123376-2.6876624-5.9966926-6-6zm-10-5c0-2.7614237 2.2385763-5 5-5s5 2.2385763 5 5-2.2385763 5-5 5c-2.7600532-.0033061-4.9966939-2.2399468-5-5zm14 17h-3v-3c0-.5522847-.4477153-1-1-1s-1 .4477153-1 1v3h-8v-3c0-.5522847-.4477153-1-1-1s-1 .4477153-1 1v3h-3v-6c0-2.209139 1.790861-4 4-4h10c2.209139 0 4 1.790861 4 4z" fill="#000000" data-original="#000000"></path><path id="Shape" d="m35.955 22.814c-.1158002-.3708789-.4359439-.6411098-.821-.693l-5.709-.776-2.541-4.812c-.1896328-.3059856-.5240169-.492146-.884-.492146s-.6943672.1861604-.884.492146l-2.541 4.812-5.709.776c-.3848431.0522741-.7046128.3226454-.8201387.6934426-.1155258.3707973-.0059106.774948.2811387 1.0365574l4.089 3.725-.962 5.243c-.0694221.3719367.0770173.7512047.3783796.9799777.3013624.228773.7060352.2678703 1.0456204.1010223l5.122-2.519 5.122 2.519c.1370137.0667583.2875911.1009804.44.1.2969898.0001535.5786823-.1317097.7687915-.3598795.1901093-.2281697.2689637-.529036.2152085-.8211205l-.962-5.243 4.089-3.725c.2875317-.2614954.3975057-.6659033.282-1.037zm-6.128 3.658c-.2552467.2325739-.3724418.5803789-.31.92l.7 3.835-3.776-1.857c-.2781197-.1366572-.6038803-.1366572-.882 0l-3.779 1.857.7-3.835c.0624418-.3396211-.0547533-.6874261-.31-.92l-2.917-2.658 4.1-.556c.3199297-.0433553.5992458-.2385041.75-.524l1.897-3.592 1.9 3.592c.1507542.2854959.4300703.4806447.75.524l4.1.556z" fill="#000000" data-original="#000000"></path><path id="Shape" d="m7 34c0 2.209139 1.790861 4 4 4 .4718223-.0036972.9391804-.0917502 1.38-.26.9230472 1.0767813 1.9703368 2.0404891 3.12 2.871.4479866.3221788 1.0722736.2205923 1.395-.227.1564115-.2153722.2205049-.4842152.1780856-.7469895-.0424193-.2627744-.1878505-.4977941-.4040856-.6530105-.9673913-.6986244-1.8532748-1.5036681-2.641-2.4 1.0221915-1.1801784 1.2597032-2.8491184.6073358-4.2676083-.6523674-1.4184898-2.0740437-2.3243646-3.6353358-2.3163917-.1574487.0064938-.3143832.0221872-.47.047-1.72440439-6.5573791.8765309-13.4891504 6.488905-17.2936276 5.6123742-3.80447725 13.0145042-3.65351433 18.467095.3766276-.3145379.5733975-.4815493 1.216013-.486 1.87 0 2.209139 1.790861 4 4 4 .4328692-.0051063.8619431-.0814612 1.27-.226 3.568824 7.0318354 1.4739119 15.6157515-4.933 20.213-.3070911.201161-.4792702.5544144-.4485321.9202366.0307382.3658221.2594509.6853907.5958042.8324864.3363533.1470958.7262632.0980664 1.0157279-.127723 7.2788859-5.2175322 9.6019674-14.9999831 5.446-22.933 1.3549215-1.4804124 1.3979465-3.7372876.1004341-5.268266-1.2975124-1.5309783-3.5308982-1.8585831-5.2134341-.764734-5.4443068-4.12091499-12.7529359-4.80260025-18.86543-1.75960297-6.1124941 3.04299727-9.97401608 9.28554507-9.96757 16.11360297.00282061 1.6131513.22450946 3.2184611.659 4.772-1.03920165.7472273-1.65635118 1.9480462-1.659 3.228zm34-19c0 1.1045695-.8954305 2-2 2s-2-.8954305-2-2 .8954305-2 2-2 2 .8954305 2 2zm-28 19c0 1.1045695-.8954305 2-2 2s-2-.8954305-2-2 .8954305-2 2-2 2 .8954305 2 2z" fill="#000000" data-original="#000000"></path><path id="Shape" d="m51.757 29.424c1.0261665-7.4321293-1.2229462-14.9438539-6.1646625-20.58911771-4.9417163-5.64526382-12.0897761-8.86857837-19.5923375-8.83488229-6.3165041-.00896545-12.4180275 2.29342238-17.154 6.473-.56747993-.30603491-1.20127528-.46843209-1.846-.473-1.52583288-.00809781-2.92191326.85707713-3.59371089 2.22708424-.67179764 1.37000711-.5009793 3.00352756.43971089 4.20491576-2.51717847 4.0777238-3.84893488 8.7759222-3.846 13.568.02210307 9.1610327 4.84559175 17.6398065 12.709 22.34.158237.0919029.3380108.1402106.521.14.457017-.0022627.8543473-.314075.9651915-.7574521.1108443-.4433771-.093006-.9054846-.4951915-1.1225479-7.24025548-4.3421152-11.67912344-12.1575579-11.7-20.6-.00291764-4.3436108 1.18291224-8.6051978 3.429-12.323 1.61541316.6962731 3.49620266.2527882 4.6303793-1.0918304 1.1341766-1.3446187 1.2542532-3.2732528.2956207-4.7481696 7.0993177-6.13765941 17.1274996-7.56758997 25.6593529-3.65879814 8.5318534 3.90879184 13.9977205 12.43718154 13.9856471 21.82179814-.0056642 1.0103414-.0748003 2.0193289-.207 3.021-1.6979889.0822031-3.1564275 1.2335432-3.6305397 2.8660693-.4741121 1.6325261.1407271 3.3859799 1.5305397 4.3649307-2.0484665 4.3108607-5.3276723 7.9185439-9.424 10.368-.3072484.1825627-.4937616.5151727-.4892818.872539.0044797.3573663.1992718.6851964.511.86.3117281.1748035.6930334.1700237 1.0002818-.012539 4.4848382-2.6836115 8.063494-6.6485184 10.275-11.384.143723.0228254.2886204.0375155.434.044 1.8603142.0055429 3.4774677-1.27556 3.8977527-3.0877852.4202851-1.8122253-.4678999-3.6743577-2.1407527-4.4882148zm-44.757-17.424c-1.1045695 0-2-.8954305-2-2s.8954305-2 2-2 2 .8954305 2 2-.8954305 2-2 2zm43 23c-1.1045695 0-2-.8954305-2-2s.8954305-2 2-2 2 .8954305 2 2-.8954305 2-2 2z" fill="#000000" data-original="#000000"></path></g></g></g></svg>