<svg xmlns="http://www.w3.org/2000/svg" version="1.1" xmlns:xlink="http://www.w3.org/1999/xlink" xmlns:svgjs="http://svgjs.com/svgjs" width="512" height="512" x="0" y="0" viewBox="0 0 512 512" style="enable-background:new 0 0 512 512" xml:space="preserve" class=""><g>
<g xmlns="http://www.w3.org/2000/svg" transform="translate(0 1)">
	<g>
		<g>
			<path d="M393.774,196.093c5.69-50.052,8.146-100.049,8.146-147.6c0.853-17.067-11.947-33.28-29.867-36.693     C293.547-5.267,215.04-5.267,140.8,11.8c-17.92,3.413-30.72,19.627-29.867,36.693c0,47.272,3.229,96.963,8.111,146.721     c-31.45,33.604-50.777,78.677-50.777,128.052C68.267,426.52,152.747,511,256,511s187.733-84.48,187.733-187.733     C443.733,274.321,424.741,229.602,393.774,196.093z M256,135.533c-25.703,0-50.24,5.238-72.603,14.694     c-2.052-27.064-3.451-52.252-4.197-76.134c26.453-4.267,52.907-6.827,76.8-6.827s48.64,2.56,76.8,7.68     c-0.736,24.285-2.11,49.212-4.115,75.314C306.3,140.783,281.734,135.533,256,135.533z M143.36,28.867     c72.533-17.067,148.48-17.067,224.427,0c9.387,1.707,17.067,9.387,16.213,18.773c0,43.52-2.56,87.893-5.973,133.12     c-9.188-7.656-18.386-14.614-28.806-20.281c-1.195-0.689-2.4-1.362-3.611-2.025c2.552-31.529,3.406-61.359,4.258-91.188     c0-4.267-3.413-7.68-6.827-8.533C310.613,52.76,283.307,50.2,256,50.2c-27.307,0-57.173,2.56-87.04,8.533     c-4.267,0.853-6.827,4.267-6.827,8.533c0,28.16,1.707,58.027,5.12,90.453c-11.947,6.827-22.187,13.653-32.427,22.187     C130.56,135.533,128,91.16,128,46.787C127.147,39.107,134.827,30.573,143.36,28.867z M256,493.933     c-93.867,0-170.667-76.8-170.667-170.667S162.133,152.6,256,152.6c26.143,0,50.958,5.964,73.162,16.587     c0.724,0.872,1.659,1.623,2.784,2.186c17.067,8.533,33.28,19.627,46.08,33.28c0.571,0.571,1.145,1.038,1.748,1.418     c29.025,30.63,46.892,71.926,46.892,117.195C426.667,417.133,349.867,493.933,256,493.933z" fill="#d45555" data-original="#000000"></path>
			<path d="M137.387,339.48c0-5.12-4.267-8.533-9.387-7.68c-5.12,0.853-7.68,5.12-6.827,10.24     c3.413,27.307,15.36,53.76,34.987,74.24c1.707,1.707,3.413,2.56,5.973,2.56c1.707,0,4.267-0.853,5.12-2.56     c4.267-3.413,4.267-8.533,0.853-11.947C151.04,386.413,140.8,364.227,137.387,339.48z" fill="#d45555" data-original="#000000"></path>
			<path d="M256,441.88c-14.507,0-29.013-2.56-42.667-7.68c-4.267-1.707-9.387,0.853-11.093,5.12s0.853,9.387,5.12,11.093     c15.36,5.973,31.573,9.387,48.64,9.387c4.267,0,8.533-4.267,8.533-9.387S261.12,441.88,256,441.88z" fill="#d45555" data-original="#000000"></path>
			<path d="M184.32,421.4c-5.12,0-8.533,3.413-8.533,8.533s3.413,8.533,8.533,8.533s8.533-4.267,8.533-8.533     C192.853,424.813,189.44,421.4,184.32,421.4z" fill="#d45555" data-original="#000000"></path>
		</g>
	</g>
</g>
<g xmlns="http://www.w3.org/2000/svg">
</g>
<g xmlns="http://www.w3.org/2000/svg">
</g>
<g xmlns="http://www.w3.org/2000/svg">
</g>
<g xmlns="http://www.w3.org/2000/svg">
</g>
<g xmlns="http://www.w3.org/2000/svg">
</g>
<g xmlns="http://www.w3.org/2000/svg">
</g>
<g xmlns="http://www.w3.org/2000/svg">
</g>
<g xmlns="http://www.w3.org/2000/svg">
</g>
<g xmlns="http://www.w3.org/2000/svg">
</g>
<g xmlns="http://www.w3.org/2000/svg">
</g>
<g xmlns="http://www.w3.org/2000/svg">
</g>
<g xmlns="http://www.w3.org/2000/svg">
</g>
<g xmlns="http://www.w3.org/2000/svg">
</g>
<g xmlns="http://www.w3.org/2000/svg">
</g>
<g xmlns="http://www.w3.org/2000/svg">
</g>
</g></svg>