<?xml version="1.0" encoding="utf-8"?>
<!-- Generator: Adobe Illustrator 24.3.0, SVG Export Plug-In . SVG Version: 6.00 Build 0)  -->
<svg version="1.1" id="Layer_1" xmlns:svgjs="http://svgjs.com/svgjs"
	 xmlns="http://www.w3.org/2000/svg" xmlns:xlink="http://www.w3.org/1999/xlink" x="0px" y="0px" viewBox="0 0 512 512"
	 style="enable-background:new 0 0 512 512;" xml:space="preserve">
<g>
	<g>
		<g id="Page-1_19_">
			<g id="_x30_20---Shopping-Bag">
				<path id="Shape_125_" d="M256,0c-51.8,0.1-93.8,42.1-93.9,93.9v8.5h-52.6c-13.3-0.1-24.4,10.1-25.5,23.4L54.5,465.6
					c-1,11.9,3,23.7,11.1,32.5C73.6,507,85,512,97,512H415c12,0,23.4-5,31.4-13.8s12.1-20.6,11.1-32.5L428,125.8
					c-1.1-13.3-12.2-23.5-25.5-23.4h-52.6v-8.5C349.8,42.1,307.8,0.1,256,0L256,0z M179.2,93.9c0-42.4,34.4-76.8,76.8-76.8
					s76.8,34.4,76.8,76.8v8.5H179.2L179.2,93.9z M402.5,119.5c4.4,0,8.1,3.4,8.5,7.8l29.5,339.9c0.6,7.1-1.8,14.2-6.6,19.5
					s-11.7,8.3-18.9,8.3H97c-7.2,0-14-3-18.9-8.3s-7.3-12.4-6.6-19.5L101,127.3c0.4-4.4,4.1-7.8,8.5-7.8h52.6v10.1
					c-11.8,4.2-18.8,16.2-16.7,28.5s12.8,21.3,25.2,21.3s23.1-9,25.2-21.3s-4.9-24.3-16.7-28.5v-10.1h153.6v10.1
					c-11.8,4.2-18.8,16.2-16.7,28.5s12.8,21.3,25.2,21.3s23.1-9,25.2-21.3s-4.9-24.3-16.7-28.5v-10.1H402.5z M179.2,153.6
					c0,4.7-3.8,8.5-8.5,8.5c-4.7,0-8.5-3.8-8.5-8.5s3.8-8.5,8.5-8.5C175.4,145.1,179.2,148.9,179.2,153.6z M349.9,153.6
					c0,4.7-3.8,8.5-8.5,8.5s-8.5-3.8-8.5-8.5s3.8-8.5,8.5-8.5S349.9,148.9,349.9,153.6z"/>
				<path id="Shape_124_" d="M110.9,469.3c0,4.7,3.8,8.5,8.5,8.5h273.1c4.7,0,8.5-3.8,8.5-8.5c0-4.7-3.8-8.5-8.5-8.5H119.5
					C114.8,460.8,110.9,464.6,110.9,469.3L110.9,469.3z"/>
			</g>
		</g>
	</g>
</g>
<g>
	<g>
		<g>
			<g>
				<path d="M256,278.7c-46,0-86.9,24.5-109.8,64c-2.4,4.1-1,9.3,3.1,11.7c4.1,2.4,9.3,1,11.7-3.1c19.9-34.3,55.2-55.5,95-55.5
					s75.1,21.2,95,55.5c2.4,4.1,7.6,5.5,11.7,3.1s5.5-7.6,3.1-11.7C342.9,303.2,302,278.7,256,278.7z"/>
			</g>
		</g>
	</g>
</g>
</svg>
