<svg xmlns="http://www.w3.org/2000/svg" version="1.1" xmlns:xlink="http://www.w3.org/1999/xlink" xmlns:svgjs="http://svgjs.com/svgjs" width="512" height="512" x="0" y="0" viewBox="0 0 512.14861 512" style="enable-background:new 0 0 512 512" xml:space="preserve" class=""><g><path xmlns="http://www.w3.org/2000/svg" d="m455.738281 47.40625c-20.59375-25.4375-50.160156-42.007812-82.609375-46.285156-11.402344-1.707032-32.53125-2.78125-46.082031 8.925781-1.433594 1.296875-2.742187 2.726563-3.90625 4.265625-4.488281-3.65625-10.09375-5.664062-15.882813-5.691406h-102.398437c-5.789063.027344-11.390625 2.03125-15.882813 5.683594-1.164062-1.542969-2.472656-2.96875-3.90625-4.265626-13.492187-11.65625-34.644531-10.617187-46.097656-8.917968-32.441406 4.28125-62.003906 20.847656-82.59375 46.285156-17.59375 24.066406-30.277344 51.363281-37.324218 80.332031-14.683594 52.511719-20.945313 107.019531-18.5625 161.492188 1.171874 27.253906 4.480468 54.375 9.890624 81.109375 4.601563 22.683594 10.316407 50.910156 25.054688 74.515625 2.3125 3.757812 4.851562 7.371093 7.605469 10.820312 1.003906 1.3125 2.011719 2.558594 3.019531 3.609375 15.816406 17.648438 38.601562 27.4375 62.292969 26.757813 5.765625-.046875 11.519531-.535157 17.210937-1.464844 20.996094 12.398437 44.925782 18.949219 69.308594 18.976563h122.367188c24.40625-.015626 48.363281-6.566407 69.375-18.976563 5.695312.929687 11.453124 1.417969 17.222656 1.464844 23.617187.683593 46.34375-9.054688 62.140625-26.628907 1.117187-1.214843 2.125-2.425781 3.0625-3.644531 2.753906-3.457031 5.300781-7.074219 7.621093-10.839843 14.785157-23.679688 20.476563-51.90625 25.105469-74.578126 5.410157-26.75 8.71875-53.878906 9.886719-81.144531 2.378906-54.464843-3.886719-108.964843-18.566406-161.46875-7.058594-28.96875-19.75-56.265625-37.351563-80.332031zm-259.414062-13.183594c0-4.714844 3.820312-8.535156 8.535156-8.535156h102.398437c4.714844 0 8.535157 3.820312 8.535157 8.535156v10.171875c-6.6875-1.046875-13.445313-1.597656-20.214844-1.640625h-79.039063c-6.769531.042969-13.523437.59375-20.214843 1.640625zm-137.589844 413.636719c-.769531-.855469-1.460937-1.707031-2.226563-2.671875-2.367187-2.964844-4.554687-6.070312-6.546874-9.300781-12.175782-19.5-17.355469-41.8125-22.859376-68.949219-5.230468-25.851562-8.425781-52.074219-9.558593-78.421875-2.316407-52.671875 3.734375-105.382813 17.921875-156.160156 6.476562-26.828125 18.160156-52.125 34.386718-74.453125 17.808594-22.101563 43.515626-36.410156 71.679688-39.902344 11.039062-2.738281 22.710938-.957031 32.429688 4.949219 3.792968 3.613281 5.742187 8.757812 5.296874 13.976562v11c-53.1875 15.101563-92.015624 60.785157-98.34375 115.710938l-21.667968 187.734375c-5.226563 44.136718 11.5 88.03125 44.773437 117.496094-17.359375-.402344-33.769531-8.011719-45.285156-21.007813zm239.992187 38.628906v-17.066406c0-4.710937-3.820312-8.535156-8.535156-8.535156-4.710937 0-8.53125 3.824219-8.53125 8.535156v17.066406h-17.066406v-34.132812c0-4.714844-3.820312-8.535157-8.535156-8.535157-4.710938 0-8.53125 3.820313-8.53125 8.535157v34.132812h-17.070313v-17.066406c0-4.710937-3.820312-8.535156-8.53125-8.535156-4.714843 0-8.535156 3.824219-8.535156 8.535156v17.066406h-18.515625c-34.058594-.003906-66.5-14.542969-89.164062-39.96875-22.667969-25.425781-33.402344-59.3125-29.507813-93.152343l21.65625-187.730469c5.628906-48.542969 40.25-88.761719 87.414063-101.546875l-30.027344 42.035156c-2.738282 3.835938-1.847656 9.164062 1.988281 11.902344 3.835937 2.738281 9.164063 1.847656 11.902344-1.988282l39.859375-55.808593c2.511718-.152344 5-.347657 7.542968-.347657h2.449219l-22.304687 74.351563c-.648438 2.167969-.410156 4.503906.664062 6.496094 1.074219 1.992187 2.894532 3.476562 5.0625 4.125.796875.21875 1.621094.320312 2.449219.300781 3.769531 0 7.09375-2.472656 8.175781-6.085938l23.773438-79.25h10.71875v102.402344c0 4.710938 3.820312 8.53125 8.53125 8.53125 4.714844 0 8.535156-3.820312 8.535156-8.53125v-102.402344h10.714844l23.773437 79.25c1.082031 3.613282 4.40625 6.085938 8.175781 6.085938.832032-.003906 1.65625-.125 2.449219-.359375 2.167969-.648437 3.992188-2.132813 5.0625-4.125 1.074219-1.992187 1.3125-4.332031.664063-6.5l-22.304688-74.351563h2.449219c2.558594 0 5.035156.199219 7.542969.351563l39.859375 55.808594c1.769531 2.480469 4.730469 3.828125 7.765625 3.535156s5.683594-2.183594 6.945312-4.957031c1.265625-2.773438.953125-6.011719-.820312-8.496094l-29.984375-42.035156c47.164062 12.808594 81.773437 53.054687 87.371093 101.609375l21.65625 187.730469c3.894532 33.839843-6.839843 67.726562-29.507812 93.152343-22.664062 25.425781-55.101562 39.964844-89.164062 39.96875zm195.847657-197.972656c-1.128907 26.378906-4.324219 52.628906-9.566407 78.507813-5.496093 27.132812-10.675781 49.441406-22.902343 69.015624-2 3.234376-4.191407 6.347657-6.5625 9.320313-.699219.902344-1.390625 1.707031-2.277344 2.703125-11.5 12.941406-27.871094 20.507812-45.175781 20.882812 33.289062-29.453124 50.023437-73.359374 44.78125-117.496093l-21.65625-187.734375c-6.300782-54.957032-45.140625-100.679688-98.355469-115.789063v-11c-.433594-5.230469 1.535156-10.371093 5.351563-13.976562 9.703124-5.875 21.339843-7.652344 32.355468-4.949219 28.167969 3.492188 53.875 17.800781 71.679688 39.902344 16.222656 22.328125 27.902344 47.625 34.382812 74.453125 14.195313 50.777343 20.25 103.484375 17.945313 156.160156zm0 0" fill="#d93a31" data-original="#000000" class=""></path></g></svg>