<svg xmlns="http://www.w3.org/2000/svg" version="1.1" xmlns:xlink="http://www.w3.org/1999/xlink" xmlns:svgjs="http://svgjs.com/svgjs" width="512" height="512" x="0" y="0" viewBox="0 0 512.029 512.029" style="enable-background:new 0 0 512 512" xml:space="preserve" class=""><g><g xmlns="http://www.w3.org/2000/svg"><g id="Page-1_8_"><g id="_x30_09---Double-Points-Shopping"><path id="Shape_62_" d="m51.2 460.802h-8.533c-4.713 0-8.533 3.82-8.533 8.533s3.821 8.533 8.533 8.533h8.533c4.713 0 8.533-3.821 8.533-8.533s-3.82-8.533-8.533-8.533z" fill="#d93a31" data-original="#000000" class=""></path><path id="Shape_61_" d="m483.84 270.278-72.61-10.965c-5.243-.885-9.704-4.316-11.904-9.156l-23.859-50.193v-71.962c0-14.138-11.462-25.6-25.6-25.6h-76.8v-17.067c0-47.128-38.205-85.333-85.333-85.333s-85.334 38.205-85.334 85.333v17.067h-76.8c-14.138 0-25.6 11.462-25.6 25.6v358.4c0 14.138 11.462 25.6 25.6 25.6h324.267c13.052-.039 23.975-9.913 25.327-22.895l34.594 18.91c10.695 5.999 23.906 5.216 33.818-2.005 10.82-7.729 16.232-20.99 13.909-34.082l-12.356-74.923c-.983-5.646.793-11.422 4.779-15.539l52.096-52.796c9.243-9.417 12.386-23.241 8.124-35.729-3.784-11.922-13.967-20.692-26.318-22.665zm-364.373-184.943c0-37.703 30.564-68.267 68.267-68.267s68.266 30.565 68.266 68.267v17.067h-136.533zm-102.4 401.067v-358.4c0-4.713 3.821-8.533 8.533-8.533h76.8v18.637c-11.755 4.156-18.806 16.176-16.698 28.465s12.763 21.271 25.231 21.271 23.123-8.982 25.231-21.271-4.943-24.309-16.698-28.465v-18.637h136.534v18.637c-11.755 4.156-18.806 16.176-16.698 28.465s12.763 21.271 25.231 21.271 23.123-8.982 25.231-21.271-4.943-24.309-16.698-28.465v-18.637h76.8c4.713 0 8.533 3.821 8.533 8.533v42.3c-5.861-5.26-13.459-8.168-21.333-8.166-12.706.062-24.218 7.503-29.491 19.063l-32.734 68.958c-2.2 4.84-6.661 8.272-11.904 9.156l-72.644 10.965c-12.364 1.961-22.563 10.733-26.351 22.665-4.262 12.488-1.119 26.312 8.124 35.729l52.13 52.77c3.983 4.127 5.758 9.905 4.779 15.556l-10.522 63.804h-133.12c-4.713 0-8.533 3.82-8.533 8.533s3.821 8.533 8.533 8.533h130.842c-.026 5.973 1.491 11.852 4.403 17.067h-194.978c-4.713 0-8.533-3.82-8.533-8.533zm93.866-332.8c4.713 0 8.533 3.821 8.533 8.533 0 4.713-3.821 8.533-8.533 8.533-4.713 0-8.533-3.821-8.533-8.533 0-4.713 3.821-8.533 8.533-8.533zm153.6 0c4.713 0 8.533 3.821 8.533 8.533 0 4.713-3.82 8.533-8.533 8.533s-8.533-3.82-8.533-8.533 3.821-8.533 8.533-8.533zm93.867 332.8c0 4.713-3.821 8.533-8.533 8.533h-61.585l41.668-22.775c4.433-2.432 9.801-2.432 14.234 0l14.217 7.774v6.468zm131.482-169.72-52.122 52.813c-7.806 8.017-11.321 19.276-9.463 30.31l12.365 74.914c1.225 6.653-1.481 13.417-6.955 17.391-4.607 3.398-10.781 3.769-15.761.947l-65.604-35.84c-9.529-5.234-21.072-5.234-30.601 0l-65.604 35.84c-4.984 2.808-11.15 2.438-15.761-.947-5.474-3.974-8.179-10.738-6.955-17.391l12.365-74.906c1.868-11.028-1.627-22.287-9.412-30.319l-52.053-52.787c-4.706-4.866-6.286-11.961-4.087-18.364 1.729-5.833 6.624-10.175 12.621-11.196l72.61-10.965c10.847-1.735 20.123-8.749 24.747-18.714l32.734-68.949c2.389-5.66 7.936-9.339 14.08-9.339s11.691 3.679 14.08 9.339l32.734 68.949c4.624 9.965 13.899 16.979 24.747 18.714l72.695 10.965c6.026.984 10.963 5.321 12.715 11.17 2.189 6.409.6 13.505-4.115 18.365z" fill="#d93a31" data-original="#000000" class=""></path><path id="Shape_60_" d="m313.233 369.436c-3.332-3.331-8.734-3.331-12.066 0l-11.034 11.034-11.033-11.034c-3.348-3.234-8.671-3.188-11.962.104-3.292 3.292-3.338 8.614-.104 11.962l11.034 11.034-11.034 11.034c-2.218 2.143-3.108 5.315-2.327 8.299s3.111 5.314 6.094 6.094c2.983.781 6.156-.109 8.299-2.327l11.034-11.034 11.034 11.034c3.348 3.234 8.671 3.188 11.962-.104 3.292-3.292 3.338-8.614.104-11.962l-11.034-11.034 11.034-11.034c3.33-3.333 3.33-8.734-.001-12.066z" fill="#d93a31" data-original="#000000" class=""></path><path id="Shape_59_" d="m409.6 332.802c0-23.564-19.103-42.667-42.667-42.667s-42.667 19.103-42.667 42.667c0 4.713 3.82 8.533 8.533 8.533s8.533-3.82 8.533-8.533c0-14.138 11.462-25.6 25.6-25.6s25.6 11.462 25.6 25.6c0 13.79-17.323 25.6-34.082 37.069-17.579 11.998-34.185 23.347-34.185 39.731 0 4.713 3.82 8.533 8.533 8.533h68.267c4.713 0 8.533-3.821 8.533-8.533 0-4.713-3.821-8.533-8.533-8.533h-55.115c6.811-6.385 14.221-12.1 22.127-17.067 19.464-13.329 41.523-28.407 41.523-51.2z" fill="#d93a31" data-original="#000000" class=""></path></g></g></g></g></svg>