<svg xmlns="http://www.w3.org/2000/svg" version="1.1" xmlns:xlink="http://www.w3.org/1999/xlink" xmlns:svgjs="http://svgjs.com/svgjs" width="512" height="512" x="0" y="0" viewBox="0 0 54 60" style="enable-background:new 0 0 512 512" xml:space="preserve" class=""><g><g xmlns="http://www.w3.org/2000/svg" id="Page-1" fill="none" fill-rule="evenodd"><g id="061---Watch-Strap" fill="rgb(0,0,0)" fill-rule="nonzero"><path id="Shape" d="m54 58v-38c0-13.591-8.364-18.84-10.04-19.754-.5976092-.32804129-1.3213908-.32804129-1.919 0-1.677.914-10.041 6.163-10.041 19.754v38c0 1.1045695.8954305 2 2 2h18c1.1045695 0 2-.8954305 2-2zm-20-38c0-12.46 7.5-17.179 9-18 1.5.819 9 5.538 9 18v38h-18z" fill="#d93a31" data-original="#000000" class=""></path><path id="Shape" d="m43 13c-2.209139 0-4 1.790861-4 4s1.790861 4 4 4 4-1.790861 4-4-1.790861-4-4-4zm0 6c-1.1045695 0-2-.8954305-2-2s.8954305-2 2-2 2 .8954305 2 2-.8954305 2-2 2z" fill="#d93a31" data-original="#000000" class=""></path><path id="Shape" d="m43 24c-2.209139 0-4 1.790861-4 4s1.790861 4 4 4 4-1.790861 4-4-1.790861-4-4-4zm0 6c-1.1045695 0-2-.8954305-2-2s.8954305-2 2-2 2 .8954305 2 2-.8954305 2-2 2z" fill="#d93a31" data-original="#000000" class=""></path><path id="Shape" d="m43 35c-2.209139 0-4 1.790861-4 4s1.790861 4 4 4 4-1.790861 4-4-1.790861-4-4-4zm0 6c-1.1045695 0-2-.8954305-2-2s.8954305-2 2-2 2 .8954305 2 2-.8954305 2-2 2z" fill="#d93a31" data-original="#000000" class=""></path><path id="Shape" d="m14 16c2.209139 0 4-1.790861 4-4s-1.790861-4-4-4-4 1.790861-4 4 1.790861 4 4 4zm0-6c1.1045695 0 2 .8954305 2 2s-.8954305 2-2 2-2-.8954305-2-2 .8954305-2 2-2z" fill="#d93a31" data-original="#000000" class=""></path><path id="Shape" d="m14 27c2.209139 0 4-1.790861 4-4s-1.790861-4-4-4-4 1.790861-4 4 1.790861 4 4 4zm0-6c1.1045695 0 2 .8954305 2 2s-.8954305 2-2 2-2-.8954305-2-2 .8954305-2 2-2z" fill="#d93a31" data-original="#000000" class=""></path><path id="Shape" d="m4 60h20c2.209139 0 4-1.790861 4-4v-20c-.0068148-1.8184116-1.2393149-3.4034067-3-3.858v-30.142c0-1.1045695-.8954305-2-2-2h-18c-1.1045695 0-2 .8954305-2 2v30.142c-1.76068514.4545933-2.99318518 2.0395884-3 3.858v20c0 2.209139 1.790861 4 4 4zm19-58v30h-18v-30zm-21 34c0-1.1045695.8954305-2 2-2h20c1.1045695 0 2 .8954305 2 2v20c0 1.1045695-.8954305 2-2 2h-20c-1.1045695 0-2-.8954305-2-2z" fill="#d93a31" data-original="#000000" class=""></path><path id="Shape" d="m6 55c.55228475 0 1-.4477153 1-1v-15h6v6c0 .5522847.4477153 1 1 1s1-.4477153 1-1v-6h6v15c0 .5522847.4477153 1 1 1s1-.4477153 1-1v-16c0-.5522847-.4477153-1-1-1h-16c-.55228475 0-1 .4477153-1 1v16c0 .5522847.44771525 1 1 1z" fill="#d93a31" data-original="#000000" class=""></path></g></g></g></svg>