<?xml version="1.0" encoding="utf-8"?>
<!-- Generator: Adobe Illustrator 24.3.0, SVG Export Plug-In . SVG Version: 6.00 Build 0)  -->
<svg version="1.1" id="Layer_1" xmlns="http://www.w3.org/2000/svg" xmlns:xlink="http://www.w3.org/1999/xlink" x="0px" y="0px"
	 viewBox="0 0 100 100" style="enable-background:new 0 0 100 100;" xml:space="preserve">
<style type="text/css">
	.st0{fill:#FFFFFF;}
</style>
<g>
	<g id="Page-1">
		<g id="_x30_30---Weight-Lifting">
			<path id="Shape" class="st0" d="M93.4,86.5H77.1c0.5-0.9,0.8-1.8,0.8-2.8V48l6.2-8.8c0.6-0.8,0.9-1.8,0.9-2.8v-1
				c0.5,0.2,0.9,0.3,1.4,0.3c2.3,0,4.2-1.9,4.2-4.2v-4.2H92c2.3,0,4.2-1.9,4.2-4.2s-1.9-4.2-4.2-4.2h-1.4v-4.2
				c0-2.3-1.9-4.2-4.2-4.2c-2.3,0-4.2,1.9-4.2,4.2v3.3c-1.9-0.9-4.1-0.5-5.6,0.9H59.4c-1.5-1.5-3.7-1.8-5.6-0.9v-3.3
				c0-2.3-1.9-4.2-4.2-4.2c-2.3,0-4.2,1.9-4.2,4.2v4.2H44c-2.3,0-4.2,1.9-4.2,4.2s1.9,4.2,4.2,4.2h1.4v4.2c0,2.3,1.9,4.2,4.2,4.2
				c0.5,0,1-0.1,1.4-0.3v1c0,1,0.3,2,0.9,2.8l6.2,8.8v35.7c0,1,0.3,2,0.8,2.8H17.1c-2.3,0-4.2,1.9-4.2,4.2c0,2.3,1.9,4.2,4.2,4.2
				h76.3c2.3,0,4.2-1.9,4.2-4.2C97.7,88.4,95.8,86.5,93.4,86.5z M92,21.5c0.8,0,1.4,0.6,1.4,1.4s-0.6,1.4-1.4,1.4h-1.4v-2.8H92z
				 M84.9,14.4c0-0.8,0.6-1.4,1.4-1.4c0.8,0,1.4,0.6,1.4,1.4v17c0,0.8-0.6,1.4-1.4,1.4c-0.8,0-1.4-0.6-1.4-1.4V14.4z M68,24.3
				c-2.7,0-5.2,1.1-7.1,3v-5.1c0-0.2,0-0.5-0.1-0.7h14.3c0,0.2-0.1,0.5-0.1,0.7v5.1C73.2,25.4,70.6,24.3,68,24.3L68,24.3z M75,34.2
				c0,3.9-3.2,7.1-7.1,7.1c-3.9,0-7.1-3.2-7.1-7.1s3.2-7.1,7.1-7.1C71.9,27.1,75,30.3,75,34.2z M44,24.3c-0.8,0-1.4-0.6-1.4-1.4
				s0.6-1.4,1.4-1.4h1.4v2.8H44z M49.6,32.8c-0.8,0-1.4-0.6-1.4-1.4v-17c0-0.8,0.6-1.4,1.4-1.4s1.4,0.6,1.4,1.4v17
				C51,32.1,50.4,32.8,49.6,32.8z M60.9,83.6V47.5c0-0.3-0.1-0.6-0.3-0.8l-6.4-9.2c-0.2-0.4-0.4-0.8-0.4-1.2V22.2
				c0-1.2,0.9-2.1,2.1-2.1c1.2,0,2.1,0.9,2.1,2.1v12c0,5.5,4.4,9.9,9.9,9.9c5.5,0,9.9-4.4,9.9-9.9v-12c0-1.2,0.9-2.1,2.1-2.1
				s2.1,0.9,2.1,2.1v14.1c0,0.4-0.1,0.9-0.4,1.2l-6.4,9.2c-0.2,0.2-0.3,0.5-0.3,0.8v36.1c0,1.6-1.3,2.8-2.8,2.8s-2.8-1.3-2.8-2.8
				v-17c0-0.8-0.6-1.4-1.4-1.4c-0.8,0-1.4,0.6-1.4,1.4v17c0,1.6-1.3,2.8-2.8,2.8S60.9,85.2,60.9,83.6z M93.4,92.1H17.1
				c-0.8,0-1.4-0.6-1.4-1.4c0-0.8,0.6-1.4,1.4-1.4h76.3c0.8,0,1.4,0.6,1.4,1.4C94.8,91.5,94.2,92.1,93.4,92.1z"/>
		</g>
	</g>
</g>
<g>
	<path class="st0" d="M36.3,37.2h-0.7l-6.6-16.1c-0.4-0.9-1.3-1.3-2.2-0.9c-0.4,0.2-0.7,0.5-0.9,0.9l-3.4,8.3l-5.2-11
		c-0.4-0.8-1.4-1.2-2.2-0.8c-0.3,0.2-0.6,0.4-0.8,0.8l-2.4,5l0,0L5.2,37.2H3.9c-0.3,0-0.6,0.2-0.6,0.6s0.2,0.6,0.6,0.6h32.3
		c0.3,0,0.6-0.2,0.6-0.6S36.6,37.2,36.3,37.2z M26.8,21.5c0.1-0.3,0.4-0.4,0.7-0.3c0.1,0.1,0.2,0.2,0.3,0.3l1.9,4.6
		c-0.2,0.3-0.4,0.5-0.7,0.5c-0.3-0.1-0.6-0.3-0.8-0.5c-0.4-0.5-1-0.6-1.5-0.3c-0.1,0.1-0.2,0.2-0.3,0.3c-0.2,0.3-0.4,0.5-0.8,0.5
		c-0.3,0-0.6-0.2-0.7-0.5L26.8,21.5z M24.5,27.2c0.3,0.3,0.8,0.5,1.2,0.5c0.7,0,1.3-0.4,1.7-1c0.3,0.6,1,1,1.7,1
		c0.4,0,0.9-0.2,1.2-0.5l4.1,10h-8.3l-3-6.4L24.5,27.2z M15.2,18.9c0.2-0.3,0.5-0.4,0.8-0.2c0.1,0.1,0.2,0.1,0.2,0.2l2.3,4.8
		c-0.1,0.4-0.6,1.2-1.1,1.2c-0.3-0.1-0.6-0.3-0.8-0.5c-0.4-0.5-1-0.6-1.5-0.3c-0.1,0.1-0.2,0.2-0.3,0.3c-0.2,0.3-0.4,0.5-0.8,0.5
		c-0.5,0-1-0.8-1.1-1.2L15.2,18.9z M12.3,25c0.4,0.6,1,1,1.7,1.1c0.7,0,1.3-0.4,1.7-1c0.3,0.6,1,1,1.7,1c0.7,0,1.4-0.4,1.7-1.1
		l2.9,6l0,0l2.9,6.2H6.5L12.3,25z"/>
	<path class="st0" d="M35.7,13.9C35.7,13.8,35.7,13.8,35.7,13.9c0-1-0.8-1.8-1.7-1.8c0,0-0.1,0-0.1,0c-0.5-1.3-1.9-2-3.2-1.5
		c-1.1,0.4-1.8,1.5-1.7,2.7c-1.1,0.1-1.8,1.1-1.7,2.2c0.1,1,1,1.7,1.9,1.7h5.9c0.9,0,1.7-0.7,1.7-1.7C36.8,14.7,36.4,14.1,35.7,13.9
		z M35.2,16h-5.9c-0.5,0-0.8-0.4-0.8-0.8c0-0.5,0.4-0.8,0.8-0.8c0.1,0,0.2,0,0.3,0.1c0.3,0.1,0.6,0,0.7-0.3c0.1-0.2,0.1-0.3,0-0.5
		c-0.1-0.2-0.2-0.4-0.2-0.7c0-0.8,0.6-1.4,1.4-1.4c0.7,0,1.4,0.6,1.4,1.3c0,0.3,0.3,0.5,0.6,0.5c0.1,0,0.2,0,0.3-0.1
		c0.3-0.2,0.6-0.1,0.8,0.2c0,0.1,0.1,0.2,0.1,0.3c0,0.1,0,0.2-0.1,0.3c-0.1,0.2-0.1,0.4,0,0.6c0.1,0.2,0.3,0.3,0.6,0.2
		c0.3-0.1,0.6,0.2,0.6,0.5c0.1,0.3-0.2,0.6-0.5,0.6C35.2,16,35.2,16,35.2,16z"/>
	<path class="st0" d="M19,9.6c0,1.1,0.9,2,2,2h5.9c0.9,0,1.7-0.7,1.7-1.7c0-0.7-0.4-1.3-1.1-1.6c0,0,0-0.1,0-0.1
		c0-0.9-0.8-1.7-1.7-1.7c0,0-0.1,0-0.1,0c-0.5-1.3-1.9-2-3.2-1.5c-1.1,0.4-1.8,1.5-1.7,2.7C19.7,7.8,19,8.6,19,9.6z M20.9,8.7
		c0.1,0,0.2,0,0.3,0.1c0.3,0.1,0.6,0,0.7-0.3c0.1-0.2,0.1-0.3,0-0.5c-0.1-0.2-0.2-0.4-0.2-0.7c0-0.8,0.6-1.4,1.4-1.4
		c0.7,0,1.4,0.6,1.4,1.3c0,0.3,0.3,0.5,0.6,0.5c0.1,0,0.2,0,0.3-0.1c0.3-0.2,0.6-0.1,0.8,0.2c0,0.1,0.1,0.2,0.1,0.3
		c0,0.1,0,0.2-0.1,0.3c-0.1,0.2-0.1,0.4,0,0.6c0.1,0.2,0.3,0.3,0.6,0.2c0.3-0.1,0.6,0.2,0.6,0.5c0.1,0.3-0.2,0.6-0.5,0.6
		c0,0-0.1,0-0.1,0h-5.9c-0.5,0-0.8-0.4-0.8-0.8S20.5,8.7,20.9,8.7z"/>
	<path class="st0" d="M6.7,11.5c0,1.8,1.5,3.3,3.3,3.3s3.3-1.5,3.3-3.3s-1.5-3.3-3.3-3.3C8.2,8.2,6.7,9.7,6.7,11.5z M10.1,9.3
		c1.2,0,2.2,1,2.2,2.2s-1,2.2-2.2,2.2s-2.2-1-2.2-2.2S8.8,9.3,10.1,9.3z"/>
	<path class="st0" d="M10.6,6.5V5.4c0-0.3-0.2-0.6-0.6-0.6c-0.3,0-0.6,0.2-0.6,0.6v1.1c0,0.3,0.2,0.6,0.6,0.6
		C10.4,7.1,10.6,6.8,10.6,6.5z"/>
	<path class="st0" d="M9.5,16.6v1.1c0,0.3,0.2,0.6,0.6,0.6c0.3,0,0.6-0.2,0.6-0.6v-1.1c0-0.3-0.2-0.6-0.6-0.6
		C9.8,16,9.5,16.2,9.5,16.6z"/>
	<path class="st0" d="M7.5,5.9C7.3,5.7,7,5.6,6.7,5.7C6.5,5.9,6.4,6.2,6.5,6.5c0,0,0,0,0,0l0.6,1c0.2,0.3,0.5,0.4,0.8,0.2
		c0.3-0.2,0.4-0.5,0.2-0.8L7.5,5.9z"/>
	<path class="st0" d="M13.1,15.6c-0.2-0.3-0.5-0.4-0.8-0.2c-0.3,0.2-0.4,0.5-0.2,0.8l0.6,1c0.2,0.3,0.5,0.4,0.8,0.2
		c0.3-0.2,0.4-0.5,0.2-0.8c0,0,0,0,0,0L13.1,15.6z"/>
	<path class="st0" d="M6,8.5L5,8C4.8,7.8,4.4,7.9,4.3,8.2C4.1,8.5,4.2,8.8,4.5,8.9c0,0,0,0,0,0l1,0.6c0.3,0.2,0.6,0.1,0.8-0.2
		C6.4,9,6.3,8.7,6,8.5C6,8.5,6,8.5,6,8.5z"/>
	<path class="st0" d="M14.1,14.5l1,0.6c0.3,0.2,0.6,0.1,0.8-0.2c0.2-0.3,0.1-0.6-0.2-0.8c0,0,0,0,0,0l-1-0.6
		c-0.3-0.2-0.6-0.1-0.8,0.2C13.8,14,13.9,14.4,14.1,14.5z"/>
	<path class="st0" d="M3.4,11.5c0,0.3,0.2,0.6,0.6,0.6h1.1c0.3,0,0.6-0.2,0.6-0.6S5.4,11,5.1,11H3.9C3.6,11,3.4,11.2,3.4,11.5z"/>
	<path class="st0" d="M14.5,11.5c0,0.3,0.2,0.6,0.6,0.6h1.1c0.3,0,0.6-0.2,0.6-0.6S16.5,11,16.2,11h-1.1
		C14.8,11,14.5,11.2,14.5,11.5z"/>
	<path class="st0" d="M5.5,13.6l-1,0.6c-0.3,0.2-0.4,0.5-0.2,0.8s0.5,0.4,0.8,0.2c0,0,0,0,0,0l1-0.6c0.3-0.2,0.4-0.5,0.2-0.8
		C6.1,13.5,5.7,13.4,5.5,13.6C5.5,13.6,5.5,13.6,5.5,13.6z"/>
	<path class="st0" d="M15.1,8l-1,0.6c-0.3,0.2-0.4,0.5-0.2,0.8c0.2,0.3,0.5,0.4,0.8,0.2c0,0,0,0,0,0l1-0.6c0.3-0.2,0.4-0.5,0.2-0.8
		C15.7,7.9,15.4,7.8,15.1,8C15.1,8,15.1,8,15.1,8z"/>
	<path class="st0" d="M6.7,17.3c0.3,0.2,0.6,0.1,0.8-0.2c0,0,0,0,0,0l0.6-1c0.2-0.3,0.1-0.6-0.2-0.8c-0.3-0.2-0.6-0.1-0.8,0.2
		l-0.6,1C6.4,16.8,6.5,17.2,6.7,17.3C6.7,17.3,6.7,17.3,6.7,17.3z"/>
	<path class="st0" d="M13.4,5.7c-0.3-0.2-0.6-0.1-0.8,0.2c0,0,0,0,0,0l-0.6,1c-0.2,0.3-0.1,0.6,0.2,0.8c0.3,0.2,0.6,0.1,0.8-0.2
		c0,0,0,0,0,0l0.6-1C13.8,6.2,13.7,5.9,13.4,5.7C13.4,5.7,13.4,5.7,13.4,5.7z"/>
</g>
</svg>
