<svg xmlns="http://www.w3.org/2000/svg" version="1.1" xmlns:xlink="http://www.w3.org/1999/xlink" xmlns:svgjs="http://svgjs.com/svgjs" width="512" height="512" x="0" y="0" viewBox="0 0 512 512" style="enable-background:new 0 0 512 512" xml:space="preserve" class=""><g><path xmlns="http://www.w3.org/2000/svg" d="m0 435.199219v17.066406c.0390625 11.089844 7.226562 20.890625 17.792969 24.253906 3.488281 20.453125 21.191406 35.429688 41.941406 35.480469h221.867187c20.746094-.050781 38.449219-15.027344 41.9375-35.480469 10.566407-3.363281 17.757813-13.164062 17.792969-24.253906v-17.066406c-.03125-10.8125-6.867187-20.433594-17.066406-24.027344v-114.078125c10.199219-3.59375 17.035156-13.214844 17.066406-24.027344v-8.53125c-.03125-10.816406-6.867187-20.4375-17.066406-24.027344v-20.214843c10.199219-3.589844 17.035156-13.214844 17.066406-24.027344v-17.066406c-.035156-11.023438-7.144531-20.78125-17.625-24.203125-2.6875-21.273438-17.078125-39.242188-37.25-46.511719l-55.175781-19.699219c-13.566406-4.886718-23.453125-16.691406-25.882812-30.90625 4.710937-2.335937 8.082031-6.710937 9.140624-11.859375l5.121094-25.601562c1.003906-5.015625-.292968-10.214844-3.535156-14.171875-3.242188-3.953125-8.089844-6.246094-13.203125-6.246094h-64.511719c-5.113281 0-9.957031 2.292969-13.199218 6.25-3.238282 3.953125-4.535157 9.152344-3.535157 14.167969l5.121094 25.605469c1.058594 5.148437 4.429687 9.523437 9.140625 11.855468-2.429688 14.210938-12.3125 26.015625-25.875 30.90625l-55.191406 19.699219c-20.167969 7.273437-34.554688 25.242187-37.242188 46.511719-10.484375 3.417968-17.5898435 13.175781-17.628906 24.203125v17.066406c.03125 10.8125 6.867188 20.4375 17.066406 24.027344v20.214843c-10.199218 3.589844-17.035156 13.210938-17.066406 24.027344v8.53125c.03125 10.8125 6.867188 20.433594 17.066406 24.027344v114.078125c-10.199218 3.59375-17.035156 13.214844-17.066406 24.027344zm281.601562 59.734375h-221.867187c-10.8125-.035156-20.4375-6.867188-24.027344-17.066406h269.921875c-3.59375 10.199218-13.214844 17.03125-24.027344 17.066406zm42.664063-42.667969c0 4.710937-3.820313 8.53125-8.53125 8.535156h-290.132813c-4.714843-.003906-8.53125-3.824219-8.535156-8.535156v-17.066406c.003906-4.710938 3.820313-8.53125 8.535156-8.53125h290.132813c4.710937 0 8.53125 3.820312 8.53125 8.53125zm-121.34375-435.214844v.015625l-5.121094 25.601563h-54.277343l-5.117188-25.601563zm-142.3125 107.5 55.1875-19.699219c19.722656-7.085937 33.984375-24.402343 37.160156-45.117187h35.414063c3.175781 20.714844 17.441406 38.03125 37.167968 45.117187l55.175782 19.699219c12.945312 4.648438 22.597656 15.617188 25.558594 29.050781h-271.214844c2.960937-13.429687 12.609375-24.398437 25.550781-29.050781zm-43.542969 54.648438c.003906-4.710938 3.820313-8.53125 8.535156-8.53125h290.132813c4.710937 0 8.53125 3.820312 8.53125 8.53125v17.066406c0 4.710937-3.820313 8.53125-8.53125 8.535156h-290.132813c-4.714843-.003906-8.53125-3.824219-8.535156-8.535156zm0 85.335937c.003906-4.714844 3.820313-8.53125 8.535156-8.535156h51.199219c4.710938 0 8.53125-3.820312 8.53125-8.535156 0-4.710938-3.820312-8.53125-8.53125-8.53125h-42.667969v-17.066406h273.066407v17.066406h-145.066407c-4.710937 0-8.53125 3.820312-8.53125 8.53125 0 4.714844 3.820313 8.535156 8.53125 8.535156h153.601563c4.710937.003906 8.53125 3.820312 8.53125 8.535156v8.53125c0 4.710938-3.820313 8.53125-8.53125 8.535156h-93.867187c-4.714844 0-8.535157 3.820313-8.535157 8.53125 0 4.714844 3.820313 8.535157 8.535157 8.535157h85.332031v110.933593h-273.066407v-110.933593h42.667969c4.710938 0 8.53125-3.820313 8.53125-8.535157 0-4.710937-3.820312-8.53125-8.53125-8.53125h-51.199219c-4.714843-.003906-8.53125-3.824218-8.535156-8.535156zm0 0" fill="#d93a31" data-original="#000000"></path><path xmlns="http://www.w3.org/2000/svg" d="m62.976562 316.414062c-3.179687-1.339843-6.851562-.632812-9.300781 1.792969-1.5625 1.636719-2.445312 3.800781-2.476562 6.058594-.03125 1.121094.203125 2.230469.683593 3.242187.433594 1.035157 1.039063 1.988282 1.792969 2.816407 3.363281 3.300781 8.75 3.300781 12.117188 0 .75-.828125 1.355469-1.78125 1.792969-2.816407.433593-1.023437.667968-2.125.679687-3.242187-.03125-2.257813-.917969-4.421875-2.472656-6.058594-.832031-.75-1.785157-1.355469-2.816407-1.792969zm0 0" fill="#d93a31" data-original="#000000"></path><path xmlns="http://www.w3.org/2000/svg" d="m59.734375 341.332031c-4.714844 0-8.535156 3.820313-8.535156 8.535157v34.132812c0 4.710938 3.820312 8.535156 8.535156 8.535156 4.710937 0 8.53125-3.824218 8.53125-8.535156v-34.132812c0-4.714844-3.820313-8.535157-8.53125-8.535157zm0 0" fill="#d93a31" data-original="#000000"></path></g></svg>